name rise44.9368peak50.754fall52.0217.mot
datacolumns 19
datarows 24
range 2.14666400000000 2.18499400000000
endheader
time	ground_force1_vx	ground_force1_vy	ground_force1_vz	ground_force1_px	ground_force1_py	ground_force1_pz	ground_force2_vx	ground_force2_vy	ground_force2_vz	ground_force2_px	ground_force2_py	ground_force2_pz	ground_torque1_x	ground_torque1_y	ground_torque1_z	ground_torque2_x	ground_torque2_y	ground_torque2_z	
2.14666400000000	59.20288700000000	750.13231199999996	60.24710000000000	0.39147100000000	0.00000000000000	0.10808700000000	0.22193000000000	3.47505100000000	0.57387100000000	0.00000000000000	0.00000000000000	0.00000000000000	0.00000000000000	33.15276700000000	0.00000000000000	0.00000000000000	0.11229200000000	0.00000000000000	
2.14832700000000	58.36991500000000	752.04234699999995	60.50088800000000	0.38984300000000	0.00000000000000	0.10821900000000	0.00000000000000	0.00000000000000	0.00000000000000	0.00000000000000	0.00000000000000	0.00000000000000	0.00000000000000	33.32890300000000	0.00000000000000	0.00000000000000	0.00000000000000	0.00000000000000	
2.15000900000000	57.53358300000000	753.85712599999999	60.75085600000000	0.38822600000000	0.00000000000000	0.10835300000000	0.00000000000000	0.00000000000000	0.00000000000000	0.00000000000000	0.00000000000000	0.00000000000000	0.00000000000000	33.50272600000000	0.00000000000000	0.00000000000000	0.00000000000000	0.00000000000000	
2.15166300000000	56.69522600000000	755.57583799999998	60.99658900000000	0.38662100000000	0.00000000000000	0.10848800000000	0.00000000000000	0.00000000000000	0.00000000000000	0.00000000000000	0.00000000000000	0.00000000000000	0.00000000000000	33.67388000000000	0.00000000000000	0.00000000000000	0.00000000000000	0.00000000000000	
2.15332900000000	55.85611700000000	757.19770000000005	61.23762400000000	0.38503000000000	0.00000000000000	0.10862400000000	0.00000000000000	0.00000000000000	0.00000000000000	0.00000000000000	0.00000000000000	0.00000000000000	0.00000000000000	33.84197800000000	0.00000000000000	0.00000000000000	0.00000000000000	0.00000000000000	
2.15499700000000	55.01746900000000	758.72196799999995	61.47345200000000	0.38345200000000	0.00000000000000	0.10876000000000	0.00000000000000	0.00000000000000	0.00000000000000	0.00000000000000	0.00000000000000	0.00000000000000	0.00000000000000	34.00661100000000	0.00000000000000	0.00000000000000	0.00000000000000	0.00000000000000	
2.15665900000000	54.18042900000000	760.14794600000005	61.70352100000000	0.38189100000000	0.00000000000000	0.10889700000000	0.00000000000000	0.00000000000000	0.00000000000000	0.00000000000000	0.00000000000000	0.00000000000000	0.00000000000000	34.16734600000000	0.00000000000000	0.00000000000000	0.00000000000000	0.00000000000000	
2.15833000000000	53.34608200000000	761.47500100000002	61.92724300000000	0.38034700000000	0.00000000000000	0.10903400000000	0.00000000000000	0.00000000000000	0.00000000000000	0.00000000000000	0.00000000000000	0.00000000000000	0.00000000000000	34.32373500000000	0.00000000000000	0.00000000000000	0.00000000000000	0.00000000000000	
2.15999500000000	52.51544900000000	762.70257000000004	62.14400100000000	0.37882000000000	0.00000000000000	0.10917100000000	0.00000000000000	0.00000000000000	0.00000000000000	0.00000000000000	0.00000000000000	0.00000000000000	0.00000000000000	34.47531400000000	0.00000000000000	0.00000000000000	0.00000000000000	0.00000000000000	
2.16166500000000	51.68948600000000	763.83017500000005	62.35314800000000	0.37731400000000	0.00000000000000	0.10930800000000	0.00000000000000	0.00000000000000	0.00000000000000	0.00000000000000	0.00000000000000	0.00000000000000	0.00000000000000	34.62161100000000	0.00000000000000	0.00000000000000	0.00000000000000	0.00000000000000	
2.16333000000000	50.86908600000000	764.85743000000002	62.55401600000000	0.37582700000000	0.00000000000000	0.10944400000000	0.00000000000000	0.00000000000000	0.00000000000000	0.00000000000000	0.00000000000000	0.00000000000000	0.00000000000000	34.76214600000000	0.00000000000000	0.00000000000000	0.00000000000000	0.00000000000000	
2.16499400000000	50.05507600000000	765.78405299999997	62.74592300000000	0.37436100000000	0.00000000000000	0.10958000000000	0.00000000000000	0.00000000000000	0.00000000000000	0.00000000000000	0.00000000000000	0.00000000000000	0.00000000000000	34.89643500000000	0.00000000000000	0.00000000000000	0.00000000000000	0.00000000000000	
2.16666700000000	49.24822100000000	766.60987499999999	62.92817400000000	0.37291800000000	0.00000000000000	0.10971400000000	0.00000000000000	0.00000000000000	0.00000000000000	0.00000000000000	0.00000000000000	0.00000000000000	0.00000000000000	35.02399500000000	0.00000000000000	0.00000000000000	0.00000000000000	0.00000000000000	
2.16833400000000	48.44922300000000	767.33484899999996	63.10007200000000	0.37149700000000	0.00000000000000	0.10984800000000	0.00000000000000	0.00000000000000	0.00000000000000	0.00000000000000	0.00000000000000	0.00000000000000	0.00000000000000	35.14434800000000	0.00000000000000	0.00000000000000	0.00000000000000	0.00000000000000	
2.17000000000000	47.65872500000000	767.95905600000003	63.26091900000000	0.37009900000000	0.00000000000000	0.10998000000000	0.00000000000000	0.00000000000000	0.00000000000000	0.00000000000000	0.00000000000000	0.00000000000000	0.00000000000000	35.25702300000000	0.00000000000000	0.00000000000000	0.00000000000000	0.00000000000000	
2.17166300000000	46.87730600000000	768.48271699999998	63.41002300000000	0.36872600000000	0.00000000000000	0.11011000000000	0.00000000000000	0.00000000000000	0.00000000000000	0.00000000000000	0.00000000000000	0.00000000000000	0.00000000000000	35.36156000000000	0.00000000000000	0.00000000000000	0.00000000000000	0.00000000000000	
2.17333400000000	46.10548900000000	768.90619400000003	63.54670600000000	0.36737700000000	0.00000000000000	0.11023900000000	0.00000000000000	0.00000000000000	0.00000000000000	0.00000000000000	0.00000000000000	0.00000000000000	0.00000000000000	35.45751100000000	0.00000000000000	0.00000000000000	0.00000000000000	0.00000000000000	
2.17499100000000	45.34374000000000	769.23000400000001	63.67030300000000	0.36605300000000	0.00000000000000	0.11036600000000	0.00000000000000	0.00000000000000	0.00000000000000	0.00000000000000	0.00000000000000	0.00000000000000	0.00000000000000	35.54445000000000	0.00000000000000	0.00000000000000	0.00000000000000	0.00000000000000	
2.17666700000000	44.59246800000000	769.45481500000005	63.78017400000000	0.36475500000000	0.00000000000000	0.11049100000000	0.00000000000000	0.00000000000000	0.00000000000000	0.00000000000000	0.00000000000000	0.00000000000000	0.00000000000000	35.62196700000000	0.00000000000000	0.00000000000000	0.00000000000000	0.00000000000000	
2.17833000000000	43.85202900000000	769.58145800000000	63.87570800000000	0.36348200000000	0.00000000000000	0.11061300000000	0.00000000000000	0.00000000000000	0.00000000000000	0.00000000000000	0.00000000000000	0.00000000000000	0.00000000000000	35.68967600000000	0.00000000000000	0.00000000000000	0.00000000000000	0.00000000000000	
2.17999100000000	43.12272800000000	769.61092599999995	63.95632300000000	0.36223500000000	0.00000000000000	0.11073300000000	0.00000000000000	0.00000000000000	0.00000000000000	0.00000000000000	0.00000000000000	0.00000000000000	0.00000000000000	35.74721900000000	0.00000000000000	0.00000000000000	0.00000000000000	0.00000000000000	
2.18166200000000	42.40482000000000	769.54438000000005	64.02147500000000	0.36101400000000	0.00000000000000	0.11085000000000	0.00000000000000	0.00000000000000	0.00000000000000	0.00000000000000	0.00000000000000	0.00000000000000	0.00000000000000	35.79426300000000	0.00000000000000	0.00000000000000	0.00000000000000	0.00000000000000	
2.18332500000000	41.69851300000000	769.38314800000001	64.07066100000000	0.35981900000000	0.00000000000000	0.11096500000000	0.00000000000000	0.00000000000000	0.00000000000000	0.00000000000000	0.00000000000000	0.00000000000000	0.00000000000000	35.83050800000000	0.00000000000000	0.00000000000000	0.00000000000000	0.00000000000000	
2.18499400000000	41.00397100000000	769.12873000000002	64.10342300000001	0.35865000000000	0.00000000000000	0.11107600000000	0.00000000000000	0.00000000000000	0.00000000000000	0.00000000000000	0.00000000000000	0.00000000000000	0.00000000000000	35.85568500000000	0.00000000000000	0.00000000000000	0.00000000000000	0.00000000000000	
